<svg version="1.0" xmlns="http://www.w3.org/2000/svg"
 width="225.000000pt" height="225.000000pt" viewBox="0 0 225.000000 225.000000"
 preserveAspectRatio="xMidYMid meet">
<g transform="translate(0.000000,225.000000) scale(0.100000,-0.100000)"
fill="dodgerblue" stroke="none">
<path d="M1035 2239 c-36 -5 -94 -25 -145 -50 -82 -41 -95 -52 -436 -393 -342
-342 -352 -353 -393 -436 -78 -161 -78 -309 0 -470 41 -83 51 -94 393 -436
341 -341 353 -352 436 -393 161 -78 309 -78 469 1 82 40 96 52 437 392 343
342 353 353 393 436 80 165 76 325 -10 493 -27 52 -92 121 -386 414 -339 338
-356 354 -435 392 -114 56 -195 68 -323 50z m180 -754 c105 -28 198 -102 243
-197 109 -224 -26 -484 -275 -530 -117 -22 -247 25 -333 119 -137 150 -126
382 24 521 52 48 88 68 158 86 70 19 111 19 183 1z"/>
</g>
</svg>
