<svg xmlns="http://www.w3.org/2000/svg" viewBox="0 0 155 100" height="200" width="200">
    <path d="M10 60L10 10Q10 05 05 05L25 05 35 20 45 05 65 05
            Q60 05 60 10L60 75Q60 80 65 80L90 80Q95 80 95 75
            L95 10Q95 05 90 05L110 05Q105 05 105 10L105 75
            Q105 80 110 80L145 80Q150 80 150 75L150 85
            Q150 90 145 90L10 90Q05 90 05 95L05 85Q05 80 10 80
            L45 80Q50 80 50 75L50 20 35 40 20 20 20 45
            Q10 45 10 60z" stroke="" fill="rgb(168, 89, 19)"/>
</svg>